<?xml version="1.0" encoding="UTF-8"?>
<svg version="1.1" viewBox="0 0 1024 1024" width="1024" height="1024" xmlns="http://www.w3.org/2000/svg">
<path transform="translate(0)" d="m0 0h1024v1024h-1024z" fill="#FBFBFB"/>
<path transform="translate(669,213)" d="m0 0h23l16 3 17 5 23 12 16 14 8 8 10 13 10 19 5 15 3 15v31l-5 23-6 16-14 29-13 22-7 12h-2l-2 6-8 11-7 11-12 17-8 11-2 3-1 132-7 14-7 7-16 8-12 7-16 8-14 8-16 8-14 8-12 6-22 12-14 7-5 3-26 14-8 4-3 1h-12l-12-5-63-28-16-7-36-16-16-7-15-7-25-11-9-4-12-6-8-9-5-13v-41h-79l-5-3-4-5v-9l5-6 4-2h79v-53h-81l-6-5-1-2v-10l4-5 5-2h79v-53l5-10 7-6 28-13 34-16 27-12 15-7 23-11 29-13 10-5 5-2h16l13 4 18 7 24 9 23 8h2l-4-10-4-16-2-14v-18l2-15 4-15 9-19 8-12 12-14 12-10 15-10 16-7 17-5z" fill="#24A2D4"/>
<path transform="translate(480,379)" d="m0 0h8l13 5 16 6 29 11 7 3-3 2-28 13-21 9-12 6 6-1 10-6 6-2 5-2 8-3 4 1 5 5 2 8 7 2 3 4-5 2 6-2 24-11 15-7 4-2 4 1 12 19 10 15 7 10 10 15 14 19 10 13 1 4h2l7 9 5 6 8 4 8 1v97l-3 6-23 12-22 12-27 14-22 12-15 8-12 6-19 10-25 13-5 2-21-9-15-7-27-12-30-13-22-10-41-18-34-15-4-4-1-2v-36l45-1 6-4 1-3v-10l-6-5-2-1-44-1v-100l6 1 43 17 16 6 1 3v15l3 10 6 10 5 6 12 8 17 7 9 2h9l8-3 4-5 2-6 2-15 4-1 32 13 15 6 1 1 1-27-5-1-28-11-37-15v32l-3 5-2 1h-7l-10-3-11-6-5-8-1-36-25-10-28-11-24-10v-3l20-9 17-8 28-13 13-6 33-15 14-7 16-7z" fill="#BDEDEC"/>
<path transform="translate(669,213)" d="m0 0h23l16 3 17 5 23 12 16 14 8 8 10 13 10 19 5 15 3 15v31l-5 23-6 16-14 29-13 22-7 12h-2l-2 6-8 11-6 9-1-3-4 2h-7l-2 5v3l-4 1-7-2h-2l-4 12 1 9v3l-4 1-2 2-2-1 1-4-6-2 1-7-4-1-1 7-7 1v3h2l2 8-1 4h-3l-1 4v3h2l1 7 1 4h2v37h-1v-36h-8l-9-5-7-8-4-5v-2h-2l-7-11-9-11-10-14-10-15-7-10-10-15-9-14 1-5-3-5 1-2h2v-7l6-4 1-5-1-9 4-2 1 3h2l3-6-4-2 2-8-4-2v-1l9-2 2-10 2-3 1-21-1-8 2-2 1-11-1-2v-8l-2-1h2l-1-8 1-10v-11l-3-1-4-8 1-6v-3-6l2-6-2-4-3-1 1-3 4-1-1-2 4-1 2-2 1-3 16-7 17-5z" fill="#36B9CF"/>
<path transform="translate(319,477)" d="m0 0 6 1 43 17 16 6 1 3v15l3 10 6 10 5 6 12 8 17 7 9 2h9l8-3 4-5 2-6 2-15 4-1 32 13 15 6 1 1v174l-8-1-19-9-36-16-30-13-22-10-41-18-34-15-4-4-1-2v-36l45-1 6-4 1-3v-10l-6-5-2-1-44-1z" fill="#BEEDED"/>
<path transform="translate(736,472)" d="m0 0 1 2-3 7-13 18-7 10-1 132-7 14-7 7-16 8-12 7-16 8-14 8-16 8-14 8-12 6-22 12-14 7-5 3-26 14-8 4-3 1h-12l-12-5-63-28-16-7-4-2v-2l-2-1 1-4-4-2-5-1v-6l2-4h3l-1-5 2-4 2-1v2l5 2v2l7 1h4l7 1 40 18 17 7 14 7 10 3 28-15 15-8 12-6 53-28 28-15 20-11 10-5h2l2-6 1-61 1-37h-2l-2-4v-7h-2l-1-6 3-3 2 1-1-11h-2v-3l7-1v-9l1 2h5l-1 8 5 2 1 3 4-3 1-1v-6l-1-3 4-12 3-2v2l10 1v-3l2-5 5-2 5 1z" fill="#26C4BD"/>
<path transform="translate(319,477)" d="m0 0 6 1 43 17 16 6 1 3v15l3 10 6 10 5 6 9 6 1 3 8 5 7 1 2 2-1 3-4 1h-5l-6 2-1 3h-3v2h-5l-4 4 8-1 2 4-1 3-5 1-2 7-3 3v12l-2-2h-6l-3 3h-2l-1-2-2 4 5-1v4l4-1v2l-2 2 3 1 4 5-1 4-6 3-3 9h-2l-1 2-1-3h-4v11l-3 2-1 6h2v-3h2l1 4-3 1-2-1v2l2 2-5 1-9-3-16-8-9-3v-2l-8-1-7-4-1-2v-36l45-1 6-4 1-3v-10l-6-5-2-1-44-1z" fill="#ADE3EF"/>
<path transform="translate(480,379)" d="m0 0h8l13 5 16 6 29 11 7 3-3 2-28 13-21 9-16 8-33 15-34 16-7 6-2 4-1 6-10-3-55-22-14-6v-3l20-9 17-8 28-13 13-6 33-15 14-7 16-7z" fill="#FAFBFB"/>
<path transform="translate(673,276)" d="m0 0h17l15 5 10 7 8 8 6 9v4h2l3 9v20l-5 14-6 9-9 9-16 8-7 2h-19l-13-4-10-6-10-9-7-11-4-12v-18l4-13 6-10 8-9 11-7 11-4z" fill="#FAFBFB"/>
<path transform="translate(308,568)" d="m0 0 6 4 4 2 1 3 7-1 37 1 6 4 3 3v10l-3 5-5 3h-45l1 36 1 4 5 2 25 11 52 23 27 12-4 2h-3l-6-2-3-3-2-1-1-1v3l-2 2v4l-3 1-1 9h6l4 4-2 3 1 2-5-1-40-18-43-19-9-4-12-6-8-9-5-13v-41h-79l-5-3-4-5v-9l5-6 4-2h81l1-2h7l4-1z" fill="#36B9CF"/>
<path transform="translate(536,446)" d="m0 0 4 2 6 6 4 6 4 2v2l4 2 5 4 5 5 6 3 6 8 3 2v2l4-1 1 2-17 9-23 11-16 8-15 7-9-3-26-10-34-14-2-1 1-6 4-6 5-3h3v-2l51-24h4v-2l16-7z" fill="#FAFBFB"/>
<path transform="translate(524,420)" d="m0 0 4 1 5 5 2 8 7 2 3 4-5 2-2 3-22 10h-2v2l-10 4-36 17-9 3v2l-8 4-4 7-1 4-1 32-3 5-2 1h-7l-10-3-11-6-5-8v-36l2-8 6-7 16-8 34-16 20-9 10-2 10-6 6-2 5-2z" fill="#75D6DD"/>
<path transform="translate(445,498)" d="m0 0 5 1 32 13 28 11 5 2v198h-1l-1-171-15-6-27-11-5-2h-3l-3 19-4 6-6 4-4 1h-9l-12-3-16-7-8-6-5-7 3-2v-6l2-3-1-2h3l1-6h3l4 6 5 3 11 5h13l3-3 1-2z" fill="#39BAD0"/>
<path transform="translate(624,473)" d="m0 0 4 1 10 14 12 16 7 10v2h2l7 9 5 6 8 4 6 1v14l-3 3-2-1-6 4-7 2h-9l-8-7-8-5-7-9-1-3-5-4-5-11-4-4v-2h-2l-2-6-4-1-1-3-5-4-5-8-5-4 16-8z" fill="#76D7DE"/>
<path transform="translate(736,472)" d="m0 0 1 2-3 7-13 18-7 10-1 71h-1l-1-54-2 6 2 5v14l-1 14-2 3-2 7-3 1-2-1v2h2l1 4-3 2v6h-2l-1-7-2-6-2-1 1 3-3 11-1 1-2 9-1 35-1 2-2-1 1-2 1-61 1-37h-2l-2-4v-7h-2l-1-6 3-3 2 1-1-11h-2v-3l7-1v-9l1 2h5l-1 8 5 2 1 3 4-3 1-1v-6l-1-3 4-12 3-2v2l10 1v-3l2-5 5-2 5 1z" fill="#29BEC1"/>
<path transform="translate(554,394)" d="m0 0h9l5 1 9-1 2 3v3h2l5 7 2 7 2 1 1 3-6 5-15 7-28 13-3-1 4-3-1-3-5-1-3-3-3-8-4-3-6 1-20 8-3 3-5 2h-6l4-3 17-8 27-12 15-7h4l-1-4 1-3z" fill="#37BACF"/>
<path transform="translate(589,420)" d="m0 0 4 1 12 19 10 15 7 10 5 8-18 8h-6l-4-6-3-6v-2h-2l-4-4-8-7-3-2v-2h-2l-3-6-5-5-4-3-4-2 11-7h2v-2z" fill="#ADE3EF"/>
<path transform="translate(571,428)" d="m0 0 3 1-10 6v2l3 1 4 4v2l4 2 2 6h2l4 4 8 7 3 2v2h2l3 6 5 7h5l-1 2-16 8-4 1-5-1-6-7-4-5-7-3-6-7-6-4v-2l-5-2-5-8-3-1-3-4h-5l2-2 28-13z" fill="#BEEEED"/>
<path transform="translate(593,488)" d="m0 0h5l6 5 5 8 3 2v3l4 1 2 3v3h2l2 4 4 4 5 10 4 3 4 7 5 6 10 6 2 4h11l9-3 5-3h2l2-1v12l-1 3-7 2-4 3-6 1v-2l-6 2-8-2v-2h-3l-1 2-2-1v-2l-5-2-3-2v-5l-5-2-3-9-2-1 1-3h-2l-2-5v-3h-2l-1-4-2-1-3-7-1-3-3-1-1-3-4-4-1-3-4-3-5-5-2-5h-2l-1-3-4-2z" fill="#AEE4EF"/>
<path transform="translate(496,383)" d="m0 0 9 2 12 5 29 11 7 3-3 2-28 13-5 1-1-2-2 1-1-7-1-3h-2l-4-6-2-6-6-5z" fill="#BDEDED"/>
<path transform="translate(410,684)" d="m0 0h2v2l5 2v2l7 1h4l7 1 20 9-3 1-13-6-1 2-6 1v2l5 1 1 2-2 1v3h2l1 3-5 1-3-3-7 2-1 2 3 1v2l8 5-2 1-17-7-1-3-2-1 1-4-4-2-5-1v-6l2-4h3l-1-5 2-4z" fill="#29BFC1"/>
<path transform="translate(549,440)" d="m0 0 4 1 7 11 5 5 8 7 8 8 3 4v2h2l3 3 4 3-1 3-6-2-8-7-6-8-10-6-3-4-3-1-7-8-4-5v-4z" fill="#FCFCFC"/>
<path transform="translate(515,390)" d="m0 0 10 3 21 8 7 3-3 2-13 6-2-1 1-2-4 1 1-3-4-3-2-6-1-2-9-3z" fill="#BAECEC"/>
<path transform="translate(519,693)" d="m0 0h2l1 6 5-1 2-5 3 1v2l3 1v2l6 2 5 3h2v-2l6 1 2 2-4 2-3 3h-2l-6 2 3-3v-2h-5l-4-4-3 2-7 1-3-1-2-5h-2v-6z" fill="#ADE3EF"/>
<path transform="translate(511,391)" d="m0 0h5l5 3 6 2v2l2 1 2 6 3 3h-2l-2 4-4 1-4-9-6-4-2-5h-2z" fill="#FAFBFB"/>
<path transform="translate(213,601)" d="m0 0h80l1 1 1 19-1 11v14l-2-3v-41h-79z" fill="#24A2D4"/>
<path transform="translate(319,477)" d="m0 0h3l-1 40v57l-2 3z" fill="#BEEEED"/>
<path transform="translate(752,448)" d="m0 0h2l-2 6-12 18-3-1 2-5v-4l4-2 2-5 5-5z" fill="#2DBCC6"/>
<path transform="translate(371,596)" d="m0 0v3l-7 5h-43v9h-2v-11l45-1 6-4z" fill="#BEEEED"/>
<path transform="translate(443,705)" d="m0 0 12 4 1 3h-2l-2 4h-4v-4l-4-1v-3l-2-1z" fill="#29C0C0"/>
<path transform="translate(519,419)" d="m0 0m-2 1h2v3l-8 3-10 4-3 3-5 2h-6l4-3 17-8z" fill="#3EBCD1"/>
<path transform="translate(409,681)" d="m0 0 10 4 11 5-4 2h-3l-6-2-3-3-2-1v-2l-4-2z" fill="#34B4D0"/>
<path transform="translate(433,564)" d="m0 0h16l1 2h-2l-1 2h-6v1h-7l2-2z" fill="#ADE3EF"/>
<path transform="translate(417,711)" d="m0 0 9 3v2l8 5-2 1-17-7v-3z" fill="#34B6CF"/>
<path transform="translate(697,601)" d="m0 0 9 1v5l-2 1-7-2-1-4z" fill="#29C0C0"/>
<path transform="translate(711,523)" d="m0 0h1v28l-2-3v-11l-2-6z" fill="#26C6BC"/>
<path transform="translate(465,550)" d="m0 0v3h-2v2l2 1-5 5-3 1-2 3-2-1 1-3 3-3h3l1-5z" fill="#ADE3EF"/>
<path transform="translate(596,430)" d="m0 0 4 2 11 17 1 3h-2l-6-8-1-5h-2z" fill="#B9ECEC"/>
<path transform="translate(363,576)" d="m0 0 4 1 5 4 2 3v10h-2l-1-10-6-5-2-1z" fill="#AEE9EA"/>
<path transform="translate(321,640)" d="m0 0 9 4 5 1 1 2 8 2-2 3-18-8-3-2z" fill="#B8EBEC"/>
<path transform="translate(457,703)" d="m0 0 5 1 11 5-3 1-2-1h-12v-2l3-3z" fill="#2AB5C9"/>
<path transform="translate(622,228)" d="m0 0 2 3-6 2-1 3h-2l-2 2-3 2-1-2 5-5z" fill="#2AA8D4"/>
<path transform="translate(596,488)" d="m0 0 5 2 4 5 1 4-5-3-4-5-3-2z" fill="#BEEEED"/>
<path transform="translate(612,454)" d="m0 0 3 1 7 10 5 8-5 1v-5l-10-14z" fill="#BFEDEE"/>
<path transform="translate(407,552)" d="m0 0 9 3 7 3v2h-7l-1-2-7-4z" fill="#B5EBEB"/>
<path transform="translate(519,419)" d="m0 0m-2 1h2v3l-8 3-6 2-2-1z" fill="#3CBCD0"/>
<path transform="translate(314,606)" d="m0 0 3 1-1 4h-2v3l-3-1-2-4 5-1z" fill="#24A2D5"/>
<path transform="translate(688,617)" d="m0 0 4 2-1 7-3-2z" fill="#29C0C0"/>
</svg>
